<svg xmlns="http://www.w3.org/2000/svg" viewBox="0 0 32 32">
  <rect width="32" height="32" rx="7" fill="#140d08"/>
  <path d="M16 5c1.6 3 .4 4.8-.8 6.4-1.3 1.7-2.6 3.2-2.6 5.6a3.4 3.4 0 0 0 1.4 2.8c-.3-1.6.5-2.7 1.2-3.6.4 1.9 2 2.4 2 4.6a3.5 3.5 0 0 1-1 2.5 5.2 5.2 0 0 0 3.9-5.1c0-2.6-1.6-4-1.6-6.2 0-1.8 1-2.9 1-2.9-3 .6-4.2-1.4-3-6.1z" fill="#f2691f"/>
  <path d="M11 22c0 3 2.2 5 5 5s5-2 5-5c0-.7-.1-1.3-.4-1.9-.6 3-2.7 3.6-2.7 1.2 0-1.2.6-1.7.6-2.9-1.9 1-3 2.4-3 4-1.2-.5-1.5-1.6-1.4-2.6-1 .8-1.7 2.1-1.7 3.2z" fill="#ff8a4c"/>
</svg>
